<?xml version="1.0" encoding="UTF-8"?>
<svg width="257px" height="257px" viewBox="0 0 257 257" version="1.1" xmlns="http://www.w3.org/2000/svg" xmlns:xlink="http://www.w3.org/1999/xlink">
    <g id="Product-Configurator" stroke="none" stroke-width="1" fill="none" fill-rule="evenodd">
        <g id="All-Steps" transform="translate(-377.000000, -2285.000000)" fill="#ffffff" fill-rule="nonzero">
            <g id="Group-2" transform="translate(377.000000, 2285.000000)">
                <path d="M29.5555556,29.5555556 C36.5556723,22.5554388 46.4075242,18.3332166 59.1111111,16.8888889 L59.1111111,9.09494702e-13 C40.6880098,1.53421242 26.6139357,7.16384205 16.8888889,16.8888889 C7.16384205,26.6139357 1.53421242,40.6880098 0,59.1111111 L16.8888889,59.1111111 C18.3332166,46.4075242 22.5554388,36.5556723 29.5555556,29.5555556 Z" id="Path"></path>
                <path d="M226.555556,29.5555556 C233.555672,22.5554388 243.407524,18.3332166 256.111111,16.8888889 L256.111111,0 C237.68801,1.53421242 223.613936,7.16384205 213.888889,16.8888889 C204.163842,26.6139357 198.534212,40.6880098 197,59.1111111 L213.888889,59.1111111 C215.333217,46.4075242 219.555439,36.5556723 226.555556,29.5555556 Z" id="Path" transform="translate(226.555556, 29.555556) rotate(-270.000000) translate(-226.555556, -29.555556) "></path>
                <path d="M226.555556,226.555556 C233.555672,219.555439 243.407524,215.333217 256.111111,213.888889 L256.111111,197 C237.68801,198.534212 223.613936,204.163842 213.888889,213.888889 C204.163842,223.613936 198.534212,237.68801 197,256.111111 L213.888889,256.111111 C215.333217,243.407524 219.555439,233.555672 226.555556,226.555556 Z" id="Path" transform="translate(226.555556, 226.555556) rotate(-180.000000) translate(-226.555556, -226.555556) "></path>
                <path d="M29.5555556,226.555556 C36.5556723,219.555439 46.4075242,215.333217 59.1111111,213.888889 L59.1111111,197 C40.6880098,198.534212 26.6139357,204.163842 16.8888889,213.888889 C7.16384205,223.613936 1.53421242,237.68801 1.09139364e-11,256.111111 L16.8888889,256.111111 C18.3332166,243.407524 22.5554388,233.555672 29.5555556,226.555556 Z" id="Path" transform="translate(29.555556, 226.555556) rotate(-90.000000) translate(-29.555556, -226.555556) "></path>
                <g id="Group" transform="translate(49.001111, 49.001111)">
                    <path d="M153.307398,32.2810018 L82.2073987,0.681404372 C80.162891,-0.227134791 77.8292066,-0.227134791 75.7846988,0.681404372 L4.68469993,32.2810018 C4.52669993,32.3521009 4.41609993,32.4705994 4.25809994,32.5574982 C4.03689994,32.6680968 3.79989994,32.7391959 3.59449995,32.8734942 C3.42069995,32.9919927 3.28639995,33.1420908 3.12049995,33.2684892 C2.54303357,33.6976383 2.0365322,34.2147963 1.61949998,34.8010697 C1.46149998,35.0222668 1.29559998,35.2197643 1.15339998,35.4409615 C0.918270108,35.8584661 0.717475276,36.2943967 0.552999992,36.7444449 C0.481899993,36.9577422 0.371299994,37.1552397 0.308099995,37.3685369 C0.109695271,38.0623839 0.00605571938,38.7798794 0,39.5015098 L0,118.500503 C0,121.628863 1.83279997,124.449127 4.69259993,125.721011 L75.7925988,157.320609 C76.8195988,157.778803 77.9097988,158 79,158 C80.0999518,157.971804 81.1817938,157.713457 82.1757988,157.24161 L82.2073987,157.320609 L153.307398,125.721011 C156.162606,124.454789 158.002427,121.623854 158,118.500503 L158,39.5015098 C158.002427,36.378159 156.162606,33.5472245 153.307398,32.2810018 L153.307398,32.2810018 Z M78.9999988,16.5523022 L130.650198,39.5015098 L78.9999988,62.4507174 L68.666799,57.8608759 L27.3576996,39.5015098 L78.9999988,16.5523022 Z M15.7999998,113.373469 L15.7999998,51.6594549 L71.0999989,76.2360417 L71.0999989,137.942156 L15.7999998,113.373469 Z M86.8999987,137.942156 L86.8999987,76.2360417 L142.199998,51.6594549 L142.199998,113.373469 L86.8999987,137.942156 Z" id="Shape"></path>
                </g>
            </g>
        </g>
    </g>
</svg>