<svg width="20" height="20" viewBox="0 0 20 20" fill="none" xmlns="http://www.w3.org/2000/svg">
<path d="M10 7C7.832 7 6 8.832 6 11C6 13.168 7.832 15 10 15C12.168 15 14 13.168 14 11C14 8.832 12.168 7 10 7ZM10 13C8.935 13 8 12.065 8 11C8 9.935 8.935 9 10 9C11.065 9 12 9.935 12 11C12 12.065 11.065 13 10 13Z" fill="black"/>
<path d="M18 4H15.414L12.707 1.293C12.6143 1.19996 12.5041 1.12617 12.3828 1.07589C12.2614 1.0256 12.1313 0.999811 12 1H8C7.86866 0.999811 7.73857 1.0256 7.61724 1.07589C7.4959 1.12617 7.38571 1.19996 7.293 1.293L4.586 4H2C0.897 4 0 4.897 0 6V17C0 18.103 0.897 19 2 19H18C19.103 19 20 18.103 20 17V6C20 4.897 19.103 4 18 4ZM2 17V6H5C5.266 6 5.52 5.895 5.707 5.707L8.414 3H11.586L14.293 5.707C14.3857 5.80004 14.4959 5.87383 14.6172 5.92412C14.7386 5.9744 14.8687 6.00019 15 6H18L18.002 17H2Z" fill="black"/>
</svg>
