<svg version="1.1" width="16px" height="20px" viewBox="0 0 16 20" xmlns="http://www.w3.org/2000/svg"><g fill="none" fill-rule="evenodd"><g transform="translate(-1416 -891)" fill="#000" fill-rule="nonzero"><g transform="translate(1416 891)"><path id="a" d="m4.267 12.68c-0.184 0-0.308 0.018-0.372 0.036v1.178c0.076 0.018 0.171 0.023 0.302 0.023 0.479 0 0.774-0.242 0.774-0.651 0-0.366-0.254-0.586-0.704-0.586zm3.487 0.012c-0.2 0-0.33 0.018-0.407 0.036v2.61c0.077 0.018 0.201 0.018 0.313 0.018 0.817 6e-3 1.349-0.444 1.349-1.396 6e-3 -0.83-0.479-1.268-1.255-1.268z"/><path d="m10 0h-8c-1.1046 0-2 0.89543-2 2v16c0 1.1046 0.89543 2 2 2h12c1.1046 0 2-0.89543 2-2v-12l-6-6zm-4.502 14.19c-0.309 0.29-0.765 0.42-1.296 0.42-0.10296 0.0011178-0.20587-0.0048966-0.308-0.018v1.426h-0.894v-3.936c0.40345-0.060184 0.81112-0.087607 1.219-0.082 0.557 0 0.953 0.106 1.22 0.319 0.254 0.202 0.426 0.533 0.426 0.923-1e-3 0.392-0.131 0.723-0.367 0.948zm3.807 1.355c-0.42 0.349-1.059 0.515-1.84 0.515-0.468 0-0.799-0.03-1.024-0.06v-3.917c0.4036-0.058908 0.81114-0.086657 1.219-0.083 0.757 0 1.249 0.136 1.633 0.426 0.415 0.308 0.675 0.799 0.675 1.504 0 0.763-0.279 1.29-0.663 1.615zm3.695-2.775h-1.532v0.911h1.432v0.734h-1.432v1.604h-0.906v-3.989h2.438v0.74zm-3-5.77h-1v-5l5 5h-4z"/></g></g></g></svg>