<svg width="20" height="20" viewBox="0 0 20 20" fill="none" xmlns="http://www.w3.org/2000/svg">
<path d="M6.2786 9.08829C7.47541 7.87293 9.56271 7.87293 10.7595 9.08829L11.5064 9.84668L13 8.32989L12.2532 7.5715C11.2571 6.55887 9.93032 6 8.51906 6C7.10781 6 5.78107 6.55887 4.78495 7.5715L2.54343 9.84668C1.55502 10.8536 1 12.2174 1 13.6392C1 15.061 1.55502 16.4248 2.54343 17.4317C3.03343 17.93 3.61556 18.3251 4.25638 18.5942C4.8972 18.8634 5.58408 19.0013 6.27754 19C6.97119 19.0015 7.65828 18.8637 8.2993 18.5945C8.94032 18.3254 9.52262 17.9302 10.0127 17.4317L10.7595 16.6733L9.26589 15.1565L8.51906 15.9149C7.92379 16.5167 7.11803 16.8546 6.27807 16.8546C5.43811 16.8546 4.63234 16.5167 4.03707 15.9149C3.44395 15.3107 3.11089 14.4923 3.11089 13.6392C3.11089 12.786 3.44395 11.9677 4.03707 11.3635L6.2786 9.08829Z" fill="black"/>
<path d="M9.98729 2.56824L9.24047 3.32663L10.7341 4.84343L11.4809 4.08503C12.0762 3.48324 12.882 3.14538 13.7219 3.14538C14.5619 3.14538 15.3677 3.48324 15.9629 4.08503C16.5561 4.68926 16.8891 5.50761 16.8891 6.36077C16.8891 7.21392 16.5561 8.03228 15.9629 8.6365L13.7214 10.9117C12.5246 12.1271 10.4373 12.1271 9.24047 10.9117L8.49365 10.1533L7 11.6701L7.74682 12.4285C8.74294 13.4411 10.0697 14 11.4809 14C12.8922 14 14.2189 13.4411 15.215 12.4285L17.4566 10.1533C18.445 9.14634 19 7.78254 19 6.36077C19 4.93899 18.445 3.5752 17.4566 2.56824C16.4653 1.56398 15.1222 1 13.7219 1C12.3217 1 10.9786 1.56398 9.98729 2.56824Z" fill="black"/>
</svg>